<?xml version="1.0" encoding="UTF-8"?>
<svg width="35px" height="35px" viewBox="0 0 35 35" version="1.1" xmlns="http://www.w3.org/2000/svg" xmlns:xlink="http://www.w3.org/1999/xlink">
    <!-- Generator: Sketch 47 (45396) - http://www.bohemiancoding.com/sketch -->
    <title>fb</title>
    <desc>Created with Sketch.</desc>
    <defs></defs>
    <g id="desktop" stroke="none" stroke-width="1" fill="none" fill-rule="evenodd" opacity="0.200000003">
        <g id="landing" transform="translate(-255.000000, -2097.000000)" fill-rule="nonzero" fill="#FFFFFF">
            <g id="footer" transform="translate(40.000000, 2093.000000)">
                <path d="M248.068404,39.0002716 L216.931731,39.0002716 C215.864553,39.0002716 215,38.1351754 215,37.0684045 L215,5.93173132 C215,4.86468879 215.864689,4 216.931731,4 L248.068404,4 C249.135175,4 250,4.86468879 250,5.93173132 L250,37.0684045 C250,38.1353112 249.13504,39.0002716 248.068404,39.0002716 Z M239.149493,39.0002716 L239.149493,25.4462375 L243.698922,25.4462375 L244.380134,20.16399 L239.149493,20.16399 L239.149493,16.7916086 C239.149493,15.2622761 239.574165,14.2200864 241.76719,14.2200864 L244.56429,14.2188641 L244.56429,9.49437949 C244.080542,9.43000656 242.420155,9.28618601 240.488423,9.28618601 C236.455608,9.28618601 233.694634,11.7478397 233.694634,16.2684767 L233.694634,20.16399 L229.133526,20.16399 L229.133526,25.4462375 L233.694634,25.4462375 L233.694634,39.0002716 L239.149493,39.0002716 Z" id="fb"></path>
            </g>
        </g>
    </g>
</svg>