<?xml version="1.0" encoding="UTF-8"?>
<svg width="46px" height="20px" viewBox="0 0 46 20" version="1.1" xmlns="http://www.w3.org/2000/svg" xmlns:xlink="http://www.w3.org/1999/xlink">
    <!-- Generator: Sketch 47 (45396) - http://www.bohemiancoding.com/sketch -->
    <title>Combined Shape</title>
    <desc>Created with Sketch.</desc>
    <defs></defs>
    <g id="sign" stroke="none" stroke-width="1" fill="none" fill-rule="evenodd">
        <g id="landing" transform="translate(-602.000000, -949.000000)" fill="#D8D8D8">
            <path d="M625,958.846644 L609.110585,949.672886 L609.110585,949.672886 C606.842565,948.363444 603.94246,949.140525 602.633018,951.408545 L602.633018,951.408545 L602.633018,951.408545 C601.323577,953.676564 602.100658,956.57667 604.368677,957.886111 L622.453024,968.327114 C623.25569,968.790533 624.137524,968.992617 625,968.959764 C625.862476,968.992617 626.74431,968.790533 627.546976,968.327114 L645.631323,957.886111 L645.631323,957.886111 C647.899342,956.57667 648.676423,953.676564 647.366982,951.408545 L647.366982,951.408545 L647.366982,951.408545 C646.05754,949.140525 643.157435,948.363444 640.889415,949.672886 L640.889415,949.672886 L625,958.846644 Z" id="Combined-Shape"></path>
        </g>
    </g>
</svg>