<?xml version="1.0" encoding="UTF-8"?>
<svg width="37px" height="30px" viewBox="0 0 37 30" version="1.1" xmlns="http://www.w3.org/2000/svg" xmlns:xlink="http://www.w3.org/1999/xlink">
    <!-- Generator: Sketch 47 (45396) - http://www.bohemiancoding.com/sketch -->
    <title>Shape</title>
    <desc>Created with Sketch.</desc>
    <defs></defs>
    <g id="sign" stroke="none" stroke-width="1" fill="none" fill-rule="evenodd" opacity="0.200000003">
        <g id="landing" transform="translate(-324.000000, -2100.000000)" fill-rule="nonzero" fill="#FFFFFF">
            <g id="footer" transform="translate(40.000000, 2093.000000)">
                <path d="M295.608882,37 C309.539239,37 317.157209,25.4593326 317.157209,15.4516734 C317.157209,15.1238777 317.150532,14.7975684 317.135829,14.4727332 C318.614582,13.4037153 319.899852,12.0696662 320.913599,10.551027 C319.556609,11.1541968 318.096313,11.5602408 316.564419,11.7433322 C318.128023,10.8057273 319.328442,9.32255188 319.894773,7.55443958 C318.431503,8.42190961 316.811043,9.05239264 315.085666,9.39278584 C313.703655,7.9207215 311.736113,7 309.557497,7 C305.37517,7 301.983624,10.391669 301.983624,14.5723862 C301.983624,15.166687 302.050068,15.7447608 302.180007,16.29925 C295.885582,15.9825282 290.304149,12.9688964 286.568742,8.38647057 C285.918329,9.50568045 285.543289,10.8057645 285.543289,12.1929783 C285.543289,14.8204967 286.880336,17.1400757 288.913529,18.4970653 C287.670995,18.4586757 286.503773,18.1175913 285.483584,17.5498605 C285.482469,17.5816355 285.482469,17.612614 285.482469,17.6465741 C285.482469,21.314348 288.093018,24.3766481 291.558389,25.0705647 C290.921997,25.2440562 290.252434,25.3370822 289.561366,25.3370822 C289.074113,25.3370822 288.599396,25.2891249 288.137982,25.2005037 C289.102157,28.2096639 291.898039,30.3994277 295.212785,30.4606192 C292.620693,32.4923257 289.355371,33.7024062 285.806512,33.7024062 C285.195959,33.7024062 284.592802,33.6676781 284,33.5975705 C287.351783,35.745962 291.331708,36.9995206 295.609291,36.9995206" id="Shape"></path>
            </g>
        </g>
    </g>
</svg>